<svg width="272" height="375" viewBox="0 0 272 375" fill="none" xmlns="http://www.w3.org/2000/svg">
<path d="M186.883 269.683C186.641 271.133 186.157 273.066 185.189 274.999C185.189 274.999 184.464 276.449 183.012 278.624C182.77 279.107 182.287 279.832 181.803 280.557C180.109 283.457 177.69 287.324 175.272 291.432C173.094 295.057 170.917 298.924 168.498 303.032C164.628 309.798 160.516 317.048 157.129 323.573C153.501 330.581 150.598 336.381 149.389 340.248C147.937 344.839 151.808 355.472 152.775 357.889C153.017 358.131 153.017 358.372 153.017 358.372C154.468 360.547 156.404 362.48 158.339 364.414C161.241 367.555 163.419 369.73 160.274 369.972L157.855 369.005L153.501 367.314L142.132 362.964C140.196 362.239 138.745 360.547 138.261 358.614L136.568 352.331L133.907 359.581L129.795 357.889C133.423 348.706 129.795 345.323 138.987 335.898C141.648 333.239 145.034 313.182 149.147 297.715C150.598 291.915 152.291 286.841 153.985 283.457C155.678 280.074 157.371 277.416 159.306 274.757C159.548 274.274 160.032 273.791 160.274 273.307C162.935 269.683 165.596 266.783 167.289 264.849C168.982 263.158 169.95 262.433 169.95 262.433C178.416 259.533 188.092 260.983 186.883 269.683Z" fill="#F0A073"/>
<path d="M138.501 335.898C138.501 335.898 138.984 335.898 139.226 336.14C141.645 337.59 143.097 340.248 143.339 342.906L144.064 349.914C144.306 353.056 146.483 355.714 149.386 356.681L152.773 357.889C152.773 358.131 152.773 358.131 152.773 358.131C156.885 363.931 164.867 369.247 159.788 369.489L141.645 362.481C139.71 361.756 138.259 360.064 137.775 358.131L136.082 351.848L133.421 359.097L129.309 357.406C132.937 348.706 129.309 345.081 138.501 335.898Z" fill="#C21E1D"/>
<path d="M113.826 221.109L151.804 240.2C151.804 240.2 150.111 246.966 149.627 246.966C137.29 244.792 112.133 237.3 106.086 233.192C98.8288 228.6 105.36 216.276 113.826 221.109Z" fill="#456F96"/>
<path d="M131.484 116.952C130.516 114.294 130.033 111.153 127.855 109.461C133.903 109.219 139.708 113.569 141.644 119.127C142.369 121.544 142.611 124.202 144.063 126.136C138.499 125.894 133.419 122.269 131.484 116.952Z" fill="#21201D"/>
<path d="M129.549 143.535L128.824 147.16L127.856 151.027L126.889 155.618L125.921 160.21L124.712 166.735L107.295 154.41L113.826 129.519L129.549 143.535Z" fill="#FFAE80"/>
<path d="M124.469 160.21C130.033 183.167 141.16 182.442 142.612 195.25C143.579 204.675 133.661 208.3 133.661 208.3C130.759 221.592 128.582 233.191 129.549 241.891C129.549 241.891 101.247 236.575 99.312 236.091C103.908 222.8 95.6836 208.3 95.6836 183.892C95.6836 170.843 107.778 152.718 107.778 152.718C107.778 152.718 123.744 156.585 124.469 160.21Z" fill="#FFAE80"/>
<path d="M143.338 195.251C143.338 195.734 143.338 196.459 143.338 196.942C143.096 205.159 133.662 208.3 133.662 208.3C133.662 209.025 133.662 209.509 133.662 210.234C133.662 210.959 133.662 211.442 133.662 211.925C133.662 213.859 133.42 215.792 133.178 217.725C132.936 221.592 132.452 224.975 131.968 228.117C131.485 231.983 130.759 235.85 130.517 239.233C130.517 239.716 130.517 240.2 130.275 240.683C130.275 240.683 129.549 240.683 128.34 240.441C125.679 239.958 120.357 239.233 115.036 238.508C114.794 238.508 114.31 238.508 114.068 238.267C107.053 237.3 100.28 236.333 99.5542 236.092C99.7961 235.125 100.28 234.158 100.28 233.192C100.522 232.708 100.522 232.225 100.522 231.742C100.764 229.567 101.006 227.392 100.764 225.217C100.764 224.492 100.764 223.767 100.764 223.042C100.522 219.175 99.5542 214.825 98.8285 210.234C97.8609 205.159 96.8934 199.601 96.4096 193.076C96.4096 192.109 96.1677 191.143 96.1677 190.176C96.1677 188.243 95.9258 186.068 95.9258 183.893C95.9258 171.085 103.908 159.243 104.392 158.518C104.392 158.518 107.053 159.485 109.956 160.452C109.956 160.452 122.776 163.835 135.113 180.509C138.983 185.343 142.612 188.484 143.338 195.251Z" fill="#5589B9"/>
<path opacity="0.4" d="M127.858 151.026L126.89 155.618L125.923 160.209C123.746 158.759 120.359 156.101 119.392 154.651C116.489 150.301 115.521 145.71 115.279 140.393C117.698 144.501 122.536 147.884 126.648 150.301C127.132 150.784 127.616 150.784 127.858 151.026Z" fill="#FFAE80"/>
<path d="M141.645 135.319C139.71 132.66 138.5 131.21 138.017 129.035C144.306 98.1028 80.929 108.253 104.877 140.877L110.924 140.152C114.069 147.885 119.149 152.718 129.066 154.41C132.453 154.168 135.356 154.41 137.775 151.993C139.226 149.818 139.952 146.435 139.71 141.36C139.71 140.394 140.194 139.427 141.161 138.944C141.887 138.219 142.854 137.01 141.645 135.319Z" fill="#FFAE80"/>
<path d="M107.296 154.41C105.361 151.751 94.2335 144.26 93.9916 129.519C93.2659 99.0692 135.84 102.936 135.84 116.469C135.84 116.469 135.598 114.294 129.309 124.685C125.68 130.727 119.391 131.452 117.456 139.668C113.827 154.41 107.296 154.41 107.296 154.41Z" fill="#21201D"/>
<path d="M185.428 373.355L166.076 370.939C164.141 370.697 162.205 369.489 161.238 367.797L158.093 362.239L157.851 364.414L157.368 369.006V369.972L153.013 369.489C153.013 368.764 153.255 368.039 153.255 367.314C153.497 363.447 152.771 360.789 152.771 357.889C152.771 354.748 153.255 351.364 156.642 345.806C157.851 343.631 157.609 334.206 157.368 323.573C157.126 317.048 156.884 310.04 157.126 303.999C157.126 298.924 157.609 294.574 158.335 291.432C158.819 289.741 159.303 287.807 159.786 286.357C160.512 284.182 161.238 282.249 161.964 280.316C162.447 279.108 162.931 277.899 163.415 276.691C164.624 274.033 165.834 272.099 166.56 270.408C167.769 268.474 168.495 267.266 168.495 267.266C176.477 262.191 186.153 260.983 187.121 269.683C187.363 271.133 187.121 273.066 186.879 275.241C186.879 275.241 186.637 276.449 185.911 278.141C185.669 279.107 185.186 280.074 184.944 281.282C183.976 284.182 183.009 288.049 181.557 292.399C180.59 295.299 179.622 298.682 178.896 302.065C174.058 318.982 168.737 339.04 168.253 347.256C167.769 352.814 176.235 364.172 176.235 364.172C181.315 368.764 190.265 371.906 185.428 373.355Z" fill="#FFAE80"/>
<path d="M156.399 345.805C156.399 345.805 156.883 345.805 157.367 346.047C160.028 347.013 161.963 348.947 162.931 351.605L165.35 358.372C166.317 361.271 168.978 363.446 172.123 363.688L175.751 363.93C175.751 364.171 175.993 364.171 175.993 364.171C181.315 368.763 190.507 371.904 185.669 373.596L166.317 371.18C164.382 370.938 162.447 369.73 161.479 368.038L158.335 362.48L157.367 370.213L153.013 369.73C154.222 359.58 149.868 357.163 156.399 345.805Z" fill="#EA4A49"/>
<path d="M120.601 136.527C121.327 139.669 121.811 141.602 119.876 142.085C117.698 142.568 114.07 140.393 113.344 137.252C112.619 134.11 114.312 131.935 116.489 131.452C118.666 130.969 119.876 133.385 120.601 136.527Z" fill="#FFAE80"/>
<path d="M119.872 141.119C120.114 141.843 119.63 142.81 118.663 143.052C117.937 143.293 116.97 142.81 116.728 141.843C116.486 141.118 116.97 140.152 117.937 139.91C118.905 139.91 119.63 140.394 119.872 141.119Z" fill="white"/>
<path opacity="0.3" d="M143.338 196.942C143.096 205.159 133.904 208.3 133.904 208.3C133.904 209.025 133.904 209.509 133.904 210.234C133.904 210.717 133.904 211.442 133.904 211.925C133.904 213.859 133.662 215.792 133.662 217.725C133.178 221.592 132.936 224.975 132.452 228.117C131.969 231.983 131.243 235.85 131.001 239.233L128.824 238.75L114.31 235.85L101.49 233.192C101.248 232.708 101.006 232.225 100.764 231.742C101.006 229.567 101.248 227.392 101.006 225.217C101.006 224.492 101.006 223.767 101.006 223.042C100.764 219.175 99.7964 214.825 99.0707 210.234C98.1031 205.159 97.1355 199.601 96.6518 193.076C96.6518 192.109 96.4099 191.143 96.4099 190.176C96.4099 188.243 96.168 186.068 96.168 183.893C96.168 171.085 104.151 159.243 104.634 158.518C96.4099 180.751 108.021 185.584 120.6 189.451L128.824 205.159C134.388 204.676 139.709 201.534 143.338 196.942Z" fill="#456F96"/>
<path opacity="0.5" d="M170.916 252.282C170.916 252.282 131.487 255.666 114.796 238.266C110.2 233.674 103.911 234.158 101.008 233.191L113.828 235.849L128.342 238.749C131.487 239.233 149.145 242.858 170.916 252.282Z" fill="#EA4A49"/>
<path d="M161.479 242.133L174.058 245.757L179.622 252.041L177.203 260.499L171.639 261.707C170.429 260.499 170.913 259.291 172.607 258.807L169.22 254.216C165.592 254.457 162.931 251.074 160.512 249.141L161.479 242.133Z" fill="#FFAE80"/>
<path d="M128.341 218.692L161.481 242.133C161.481 242.133 160.755 249.383 160.513 249.383C147.934 245.758 125.438 236.575 119.632 231.742C112.617 226.184 120.842 213.859 128.341 218.692Z" fill="#5589B9"/>
<path d="M187.121 277.898C186.396 282.248 184.944 287.081 183.251 292.639C182.767 292.639 182.525 292.64 182.042 292.398C181.8 292.398 181.558 292.398 181.316 292.398C179.381 292.156 177.204 291.673 175.269 291.431C169.947 290.223 164.625 288.531 159.303 286.356C157.368 285.631 155.433 284.665 153.498 283.698C150.837 282.49 148.176 280.798 145.515 279.348C145.515 279.348 114.069 279.831 101.006 276.69C95.6846 275.482 91.8142 271.132 90.8466 265.815C89.8791 260.499 89.3953 256.39 91.3304 250.349C91.8142 248.415 92.7818 246.24 93.7494 243.824C95.2008 240.441 97.3778 237.057 100.281 233.432H101.248L114.069 236.091L128.582 238.991C131.727 239.474 169.705 248.899 182.284 259.048C183.251 259.773 184.219 260.74 184.944 261.465C185.912 262.673 186.638 263.882 187.121 265.09C188.331 268.473 188.089 272.823 187.121 277.898Z" fill="#EA4A49"/>
<path d="M118.181 177.609L131.243 223.042C134.63 232.225 120.842 238.991 116.73 227.15L101.248 182.684C96.8942 167.218 114.311 165.043 118.181 177.609Z" fill="#5589B9"/>
<path opacity="0.5" d="M182.042 292.399C181.8 292.399 181.558 292.399 181.316 292.399C179.381 292.157 177.204 291.673 175.269 291.432C169.947 290.223 164.625 288.532 159.303 286.357C157.368 285.632 155.433 284.665 153.498 283.699C150.837 282.49 148.176 280.799 145.515 279.349C145.515 279.349 114.069 279.832 101.006 276.69C95.6846 275.482 91.8142 271.132 90.8466 265.816C89.8791 260.499 89.3953 256.391 91.3304 250.349C96.4103 267.024 100.039 282.49 150.111 269.682C160.029 284.665 182.042 292.399 182.042 292.399Z" fill="#EA4A49"/>
<path d="M143.861 289.95V363.657C143.861 369.457 139.023 374.29 133.217 374.29H90.6435C84.8379 374.29 80 369.457 80 363.657V289.95C80 284.15 84.8379 279.317 90.6435 279.317H133.217C139.023 279.317 143.861 283.909 143.861 289.95Z" fill="#F9B233"/>
<path d="M143.619 298.167H80V303.966H143.619V298.167Z" fill="#5E4A4C"/>
<path d="M96.9348 279.317H93.0645V374.29H96.9348V279.317Z" fill="#5E4A4C"/>
<path d="M131.525 279.317H127.654V367.04H131.525V279.317Z" fill="#5E4A4C"/>
<path d="M261.419 374.057H165.628C160.79 374.057 156.92 370.19 156.92 365.357V305.425C156.92 300.592 160.79 296.725 165.628 296.725H261.419C266.257 296.725 270.127 300.592 270.127 305.425V365.357C270.369 370.19 266.499 374.057 261.419 374.057Z" fill="black"/>
<path d="M225.622 291.65C217.881 288.508 209.173 288.508 201.432 291.65C199.981 292.133 198.529 291.65 197.804 290.441C197.078 289.233 197.804 287.541 199.497 286.816C208.447 283.191 218.607 283.191 227.557 286.816C229.25 287.541 229.976 289.233 229.25 290.441C228.525 291.65 227.073 292.133 225.622 291.65Z" fill="black"/>
<path d="M200.703 296.483H198.768V289.958C198.768 289.474 199.251 288.991 199.735 288.991C200.219 288.991 200.703 289.474 200.703 289.958V296.483Z" fill="#DADADA"/>
<path d="M228.523 296.483H226.588V289.958C226.588 289.474 227.072 288.991 227.555 288.991C228.039 288.991 228.523 289.474 228.523 289.958V296.483Z" fill="#DADADA"/>
<path d="M169.016 307.841C169.016 308.324 168.532 308.808 168.048 308.808H156.921C156.437 308.808 155.953 308.324 155.953 307.841V304.216C155.953 299.625 159.823 295.758 164.42 295.758H168.048C168.532 295.758 169.016 296.241 169.016 296.725V307.841Z" fill="#DADADA"/>
<path d="M258.035 307.841C258.035 308.324 258.519 308.808 259.003 308.808H270.13C270.614 308.808 271.098 308.324 271.098 307.841V304.216C271.098 299.625 267.227 295.758 262.631 295.758H259.003C258.519 295.758 258.035 296.241 258.035 296.725V307.841Z" fill="#DADADA"/>
<path d="M258.035 362.698C258.035 362.215 258.519 361.731 259.003 361.731H270.13C270.614 361.731 271.098 362.215 271.098 362.698V366.323C271.098 370.914 267.227 374.781 262.631 374.781H259.003C258.519 374.781 258.035 374.298 258.035 373.814V362.698Z" fill="#DADADA"/>
<path d="M169.016 362.698C169.016 362.215 168.532 361.731 168.048 361.731H156.921C156.437 361.731 155.953 362.215 155.953 362.698V366.323C155.953 370.914 159.823 374.781 164.42 374.781H168.048C168.532 374.781 169.016 374.298 169.016 373.814V362.698Z" fill="#DADADA"/>
<path d="M174.097 320.157H151.358V314.841C151.358 312.666 149.665 310.974 147.488 310.974H131.281C129.104 310.974 127.411 312.666 127.411 314.841V320.157H104.672C99.3505 320.157 95.2383 324.265 95.2383 329.582V364.623C95.2383 369.939 99.3505 374.048 104.672 374.048H174.338C179.66 374.048 183.772 369.939 183.772 364.623V329.582C183.531 324.507 179.418 320.157 174.097 320.157ZM131.039 314.841C131.039 314.599 131.281 314.599 131.281 314.599H147.488C147.73 314.599 147.73 314.841 147.73 314.841V320.157H131.039V314.841Z" fill="#EA4A49"/>
<path d="M119.67 320.158H111.93V374.048H119.67V320.158Z" fill="#FDFDFD"/>
<path d="M166.84 320.158H159.1V374.048H166.84V320.158Z" fill="#FDFDFD"/>
<path d="M120.88 336.107H110.721V326.682H120.88V336.107ZM113.14 333.691H118.461V329.099H113.14V333.691Z" fill="#231F20"/>
<path d="M168.05 336.107H157.891V326.682H168.05V336.107ZM160.31 333.691H165.631V329.099H160.31V333.691Z" fill="#231F20"/>
</svg>
